<svg width="45" height="44" viewBox="0 0 45 44" fill="none" xmlns="http://www.w3.org/2000/svg">
<circle cx="22.6014" cy="22" r="19.7898" stroke="#1998FF"/>
<path d="M32.4002 31.0999H12.8002C11.6102 31.0999 10.7002 30.1899 10.7002 28.9999V16.3999C10.7002 15.2099 11.6102 14.2999 12.8002 14.2999H17.0002C17.1402 14.2999 17.3502 14.1599 17.4202 14.0899L18.1902 12.5499C18.4702 11.9899 19.1702 11.5699 19.8002 11.5699H25.4002C26.0302 11.5699 26.7302 11.9899 27.0102 12.5499L27.7802 14.0899C27.8502 14.2299 28.0602 14.2999 28.2002 14.2999H32.4002C33.5902 14.2999 34.5002 15.2099 34.5002 16.3999V28.9999C34.5002 30.1899 33.5902 31.0999 32.4002 31.0999V31.0999ZM12.8002 15.6999C12.3802 15.6999 12.1002 15.9799 12.1002 16.3999V28.9999C12.1002 29.4199 12.3802 29.6999 12.8002 29.6999H32.4002C32.8202 29.6999 33.1002 29.4199 33.1002 28.9999V16.3999C33.1002 15.9799 32.8202 15.6999 32.4002 15.6999H28.2002C27.5702 15.6999 26.8702 15.2799 26.5902 14.7199L25.8202 13.1799C25.7502 13.0399 25.5402 12.8999 25.4002 12.8999H19.8002C19.6602 12.8999 19.4502 13.0399 19.3802 13.1099L18.6102 14.6499C18.3302 15.2799 17.6302 15.6999 17.0002 15.6999H12.8002V15.6999Z" fill="#1998FF"/>
<path d="M22.6008 28.3C19.1008 28.3 16.3008 25.5 16.3008 22C16.3008 18.5 19.1008 15.7 22.6008 15.7C26.1008 15.7 28.9008 18.5 28.9008 22C28.9008 25.5 26.1008 28.3 22.6008 28.3ZM22.6008 17.1C19.8708 17.1 17.7008 19.27 17.7008 22C17.7008 24.73 19.8708 26.9 22.6008 26.9C25.3308 26.9 27.5008 24.73 27.5008 22C27.5008 19.27 25.3308 17.1 22.6008 17.1Z" fill="#1998FF"/>
<path d="M29.6004 17.8C29.987 17.8 30.3004 17.4866 30.3004 17.1C30.3004 16.7134 29.987 16.4 29.6004 16.4C29.2138 16.4 28.9004 16.7134 28.9004 17.1C28.9004 17.4866 29.2138 17.8 29.6004 17.8Z" fill="#1998FF"/>
<path d="M13.501 12.9H16.301V13.6H13.501V12.9Z" fill="#1998FF"/>
<path d="M22.6006 19.2V18.5C20.6406 18.5 19.1006 20.04 19.1006 22H19.8006C19.8006 20.46 21.0606 19.2 22.6006 19.2Z" fill="#1998FF"/>
</svg>
