<svg width="45" height="44" viewBox="0 0 45 44" fill="none" xmlns="http://www.w3.org/2000/svg">
<circle cx="22.8865" cy="22" r="19.7898" stroke="#1998FF"/>
<path d="M13.6221 16.5997C14.1345 20.9539 18.0857 24.7706 22.8889 24.7706C28.0404 24.7706 32.2158 20.3824 32.2158 15.6471C32.2158 15.6066 32.2131 15.5672 32.2125 15.5284C26.898 14.8071 20.1271 18.6685 13.6221 16.5997" fill="#1998FF"/>
<path d="M34.917 15.6809C34.917 9.44484 31.7954 5.59484 31.7949 5.59375H13.9761C13.9761 5.59375 10.8545 9.45031 10.8545 15.6809C10.8545 21.6024 15.9164 27.1029 22.2814 27.4327C22.2071 30.8714 21.9145 34.4523 21.0723 35.6927C19.8861 37.4405 15.7288 36.5425 15.7288 38.4062H30.0443C30.0443 36.542 25.8854 37.4405 24.6992 35.6927C23.857 34.4523 23.5644 30.872 23.49 27.4327C29.8535 27.1034 34.917 21.6024 34.917 15.6809ZM22.8857 25.967C17.5296 25.967 13.124 21.7118 12.5531 16.8572C12.5102 16.505 12.4881 16.1505 12.4869 15.7957C12.4869 10.409 15.1846 7.07633 15.1846 7.07633H30.5863C30.5868 7.07797 33.2364 10.3516 33.2807 15.6634C33.2813 15.7071 33.2846 15.7503 33.2846 15.7957C33.2846 21.0747 28.629 25.967 22.8857 25.967Z" fill="#1998FF"/>
</svg>
