<svg width="44" height="44" viewBox="0 0 44 44" fill="none" xmlns="http://www.w3.org/2000/svg">
<circle cx="21.9998" cy="22" r="19.7898" stroke="#1998FF"/>
<path d="M27.624 20.75C30.0365 20.75 31.999 18.7875 31.999 16.375C31.999 13.9625 30.0365 12 27.624 12C25.2115 12 23.249 13.9625 23.249 16.375V18.25H20.749V16.375C20.749 13.9625 18.7865 12 16.374 12C13.9615 12 11.999 13.9625 11.999 16.375C11.999 18.7875 13.9615 20.75 16.374 20.75H18.249V23.25H16.374C13.9615 23.25 11.999 25.2125 11.999 27.625C11.999 30.0375 13.9615 32 16.374 32C18.7865 32 20.749 30.0375 20.749 27.625V25.75H23.249V27.625C23.249 30.0375 25.2115 32 27.624 32C30.0365 32 31.999 30.0375 31.999 27.625C31.999 25.2125 30.0365 23.25 27.624 23.25H25.749V20.75H27.624ZM25.749 16.375C25.7668 15.8896 25.9721 15.4299 26.3217 15.0928C26.6714 14.7556 27.1383 14.5672 27.624 14.5672C28.1098 14.5672 28.5766 14.7556 28.9263 15.0928C29.276 15.4299 29.4813 15.8896 29.499 16.375C29.499 17.4075 28.6578 18.25 27.624 18.25H25.749V16.375ZM18.249 27.625C18.249 28.6575 17.4078 29.5 16.374 29.5C15.3403 29.5 14.499 28.6575 14.499 27.625C14.499 26.59 15.3403 25.75 16.374 25.75H18.249V27.625ZM18.249 18.25H16.374C16.0028 18.2502 15.6399 18.1404 15.3312 17.9343C15.0224 17.7282 14.7817 17.4352 14.6396 17.0923C14.4974 16.7494 14.4602 16.3721 14.5325 16.008C14.6049 15.6439 14.7836 15.3095 15.0461 15.047C15.3085 14.7846 15.643 14.6058 16.007 14.5335C16.3711 14.4611 16.7485 14.4984 17.0914 14.6406C17.4343 14.7827 17.7273 15.0234 17.9333 15.3321C18.1394 15.6409 18.2493 16.0038 18.249 16.375V18.25ZM23.249 23.25H20.749V20.75H23.249V23.25ZM27.624 25.75C28.1095 25.7677 28.5691 25.973 28.9062 26.3227C29.2434 26.6724 29.4318 27.1392 29.4318 27.625C29.4318 28.1108 29.2434 28.5776 28.9062 28.9273C28.5691 29.277 28.1095 29.4823 27.624 29.5C26.5903 29.5 25.749 28.6575 25.749 27.625V25.75H27.624Z" fill="#1998FF"/>
</svg>
