<svg width="45" height="44" viewBox="0 0 45 44" fill="none" xmlns="http://www.w3.org/2000/svg">
<circle cx="22.4881" cy="22" r="19.7898" stroke="#1998FF"/>
<path d="M30.9282 21.6235C31.7869 20.9579 32.5096 20.0459 32.6907 18.9779C33.1981 18.8954 33.7373 18.5601 33.7373 17.5075C33.7373 16.5768 33.4021 16.2989 33.1201 16.231C33.0904 12.4176 32.1901 10.7912 28.1554 10.7515C24.0856 10.7114 23.0142 12.4079 22.9756 16.2768C22.7296 16.3971 22.4873 16.7159 22.4873 17.5075C22.4873 18.5601 23.0262 18.8954 23.5332 18.9779C23.7124 20.0339 24.4204 20.9358 25.2661 21.5999C23.5853 21.8279 22.4873 22.1399 22.4873 23.0406V16.252C22.4873 11.6028 19.4419 11.6898 19.4419 11.6898C19.4419 11.6898 19.2132 10.75 16.8631 10.75C13.2233 10.75 11.2373 13.1249 11.2373 16.252V33.25H33.7373V23.0406C33.7373 22.3428 32.5437 21.871 30.9282 21.6235ZM13.9561 28.7946L14.0543 28.8021L14.1064 28.7721C14.1211 28.7643 15.4328 27.9914 15.4808 26.3868C16.9426 27.7593 20.4559 28.0743 21.3012 28.1305V28.6101L21.3256 28.7969H21.5127C21.6803 28.7969 21.9616 28.8445 21.9616 29.1632C21.9616 29.4651 21.8446 29.6058 21.5929 29.6058C21.5543 29.6058 21.5273 29.6013 21.5232 29.6005L21.3008 29.5581V29.7846C21.3008 30.9959 19.4322 31.9356 17.8246 31.9356C16.1307 31.9356 14.1998 30.79 14.1998 29.7846L14.1983 29.5626L13.9793 29.6009C13.9737 29.6016 13.9459 29.6061 13.9066 29.6061C13.6504 29.6061 13.5312 29.4655 13.5312 29.1636C13.5316 28.9184 13.6741 28.7946 13.9561 28.7946ZM13.8439 27.31V26.866C13.8439 25.3814 15.4114 24.1866 17.7466 24.1866C20.1619 24.1866 21.6499 25.3814 21.6499 26.866V27.31C21.6499 25.8246 20.1619 24.6302 17.7466 24.6302C15.4114 24.6302 13.8439 25.8246 13.8439 27.31V27.31ZM15.2693 31.6101C16.0017 32.0305 16.9249 32.3102 17.8249 32.3102C18.7103 32.3102 19.6452 32.053 20.3734 31.6232C21.2138 31.8944 21.8532 32.3125 22.0497 32.875H13.5499C13.7491 32.3031 14.4076 31.8812 15.2693 31.6101V31.6101ZM22.2934 30.3561C22.2282 30.1686 22.1502 29.9886 22.0617 29.8251C22.1659 29.743 22.2469 29.6207 22.2934 29.4587V30.3561V30.3561ZM12.5468 16.4549C14.5879 16.432 17.6341 14.1985 18.3983 13.6131C18.7583 14.236 19.9456 16.1421 21.1549 16.4519C21.1598 16.4526 21.6522 16.5531 21.6522 17.4152C21.6522 18.4799 20.9551 18.6764 20.9269 18.6843L20.7848 18.7191L20.7841 18.8654C20.7736 20.6646 18.2952 22.4234 16.8627 22.4234C15.4456 22.4234 12.9091 20.6305 12.9091 18.8665L12.9072 18.7232L12.7696 18.685C12.7414 18.6771 12.0728 18.4802 12.0728 17.4152C12.0728 16.6832 12.4587 16.4894 12.5468 16.4549V16.4549ZM11.6187 32.875V23.0406C11.6187 22.6079 12.7324 22.1545 14.5437 21.9333C15.3211 22.4658 16.1847 22.7984 16.8631 22.7984C17.5418 22.7984 18.4107 22.4579 19.1896 21.913C21.1062 22.1253 22.2938 22.594 22.2938 23.041V28.9105C22.2567 28.7938 22.1865 28.6905 22.0917 28.6131V27.1893C22.0917 25.1451 20.4357 23.5 17.7469 23.5C15.1474 23.5 13.4037 25.1451 13.4037 27.1893V28.594C13.2567 28.7114 13.1573 28.8944 13.1573 29.1632C13.1573 29.536 13.3058 29.7573 13.5053 29.8743C13.1367 30.5819 12.9402 31.555 13.3171 32.218C13.3354 32.251 13.3726 32.2926 13.4217 32.3372C13.3009 32.5022 13.2162 32.6822 13.1656 32.875H11.6187ZM23.8718 18.7847L23.8534 18.6329L23.7049 18.6213C23.1214 18.5766 22.8499 18.2226 22.8499 17.5075C22.8499 16.8951 22.9924 16.5854 23.2733 16.5854C23.2902 16.5854 23.3071 16.5861 23.3247 16.5876C23.3614 16.8104 23.4053 16.9716 23.4586 17.0793C23.5891 17.341 23.8362 17.4842 23.8643 17.5L24.1782 17.6751L24.1302 17.3095C24.0929 16.9685 24.0807 16.6252 24.0938 16.2824C24.2131 14.3988 24.3278 14.1471 24.7193 14.1471C24.8986 14.1471 25.1446 14.1992 25.4566 14.2645C26.0667 14.3924 26.9018 14.5679 28.1119 14.5679C29.3221 14.5679 30.1572 14.3924 30.7669 14.2645C31.0789 14.1989 31.3253 14.1471 31.5046 14.1471C31.8961 14.1471 32.0104 14.3991 32.1297 16.2816C32.1503 16.8741 32.0937 17.305 32.0929 17.3091L32.0438 17.6762L32.3592 17.4996C32.3869 17.4843 32.6329 17.341 32.7646 17.0789C32.8174 16.9728 32.8613 16.8111 32.8984 16.5876C33.2176 16.5531 33.3739 16.8591 33.3739 17.5075C33.3739 18.2223 33.1021 18.5766 32.5182 18.6213L32.3697 18.6329L32.3513 18.7847C32.0806 21.0111 29.2388 22.4234 28.1116 22.4234C26.9847 22.4234 24.1426 21.0111 23.8718 18.7847V18.7847ZM23.4822 29.3073C23.1499 29.3073 23.0611 29.0106 23.0611 28.8348C23.0611 28.6596 23.1499 28.363 23.4822 28.363H23.6528L23.8219 26.4966C23.8219 26.2638 23.8951 26.1449 24.2967 26.1449C24.5648 26.1449 24.9158 26.2034 25.3227 26.2709C25.8784 26.3631 26.5088 26.4678 27.1748 26.4678C27.8408 26.4678 28.4712 26.3631 29.0273 26.2709C29.4342 26.2034 29.7856 26.1449 30.0544 26.1449C30.4557 26.1449 30.5296 26.2634 30.5299 26.5131L30.6968 28.3626H30.8678C31.2001 28.3626 31.2889 28.6592 31.2889 28.8344C31.2889 29.0102 31.2001 29.3069 30.8678 29.3069H30.6803V29.4944C30.6803 30.9843 28.6039 31.9349 27.1744 31.9349C25.7449 31.9349 23.6686 30.9843 23.6686 29.4944V29.3069H23.4822V29.3073ZM27.1752 32.3102C27.9634 32.3102 28.9021 32.0568 29.6588 31.5963C30.5434 31.8659 31.2222 32.2926 31.4247 32.875H22.9249C23.1274 32.2926 23.8039 31.8651 24.6893 31.594C25.4472 32.056 26.3862 32.3102 27.1752 32.3102V32.3102ZM33.3559 32.875H31.8102C31.6298 32.1779 30.9518 31.6638 30.0368 31.3326C30.5914 30.8991 30.9904 30.3366 31.0478 29.6642C31.4528 29.5784 31.6639 29.2049 31.6639 28.8351C31.6639 28.5325 31.5192 28.2295 31.2454 28.0821C31.2518 28.0124 31.2548 27.9393 31.2548 27.8609V26.6781C31.2548 24.9182 29.6172 23.5 27.1752 23.5C24.6514 23.5 23.0971 24.9179 23.0971 26.6781V27.8609C23.0971 27.9393 23.1016 28.0116 23.1079 28.0806C22.8319 28.2273 22.6868 28.531 22.6868 28.8351C22.6868 29.2049 22.8976 29.5784 23.3026 29.6642C23.3599 30.3366 23.7593 30.8999 24.3151 31.3334C23.5591 31.6067 22.9684 32.0058 22.6812 32.5281V23.1257C22.6812 22.5711 23.8377 22.1346 25.7104 21.9209C26.5591 22.4774 27.4741 22.7984 28.1123 22.7984C28.7442 22.7984 29.6464 22.4849 30.4872 21.9392C32.2666 22.1628 33.3559 22.6124 33.3559 23.041V32.875" fill="#1998FF"/>
<path d="M26.0498 18.4596C26.5158 18.4596 26.8936 18.0818 26.8936 17.6158C26.8936 17.1499 26.5158 16.7721 26.0498 16.7721C25.5838 16.7721 25.2061 17.1499 25.2061 17.6158C25.2061 18.0818 25.5838 18.4596 26.0498 18.4596Z" fill="#1998FF"/>
<path d="M30.1748 18.4596C30.6408 18.4596 31.0186 18.0818 31.0186 17.6158C31.0186 17.1499 30.6408 16.7721 30.1748 16.7721C29.7088 16.7721 29.3311 17.1499 29.3311 17.6158C29.3311 18.0818 29.7088 18.4596 30.1748 18.4596Z" fill="#1998FF"/>
<path d="M29.5875 20.371C29.658 20.2412 29.5639 20.1013 29.46 20.182C28.5915 20.8573 27.6274 20.8528 26.7641 20.182C26.6602 20.1013 26.5665 20.2412 26.6366 20.371C26.9002 20.8528 27.432 21.2837 28.1119 21.2837C28.7921 21.2837 29.3235 20.8528 29.5875 20.371" fill="#1998FF"/>
<path d="M14.8496 18.4592C15.3156 18.4592 15.6934 18.0815 15.6934 17.6155C15.6934 17.1495 15.3156 16.7717 14.8496 16.7717C14.3836 16.7717 14.0059 17.1495 14.0059 17.6155C14.0059 18.0815 14.3836 18.4592 14.8496 18.4592Z" fill="#1998FF"/>
<path d="M18.876 18.4592C19.342 18.4592 19.7197 18.0815 19.7197 17.6155C19.7197 17.1495 19.342 16.7717 18.876 16.7717C18.41 16.7717 18.0322 17.1495 18.0322 17.6155C18.0322 18.0815 18.41 18.4592 18.876 18.4592Z" fill="#1998FF"/>
<path d="M15.387 20.371C15.651 20.8528 16.1828 21.2837 16.8623 21.2837C17.5425 21.2837 18.0743 20.8532 18.3383 20.371C18.4088 20.2412 18.3146 20.1013 18.2108 20.182C17.3423 20.8573 16.3781 20.8528 15.5149 20.182C15.4099 20.1017 15.3161 20.2416 15.387 20.371Z" fill="#1998FF"/>
<path d="M25.3848 29.3301C25.7472 29.3301 26.041 29.0363 26.041 28.6738C26.041 28.3114 25.7472 28.0176 25.3848 28.0176C25.0223 28.0176 24.7285 28.3114 24.7285 28.6738C24.7285 29.0363 25.0223 29.3301 25.3848 29.3301Z" fill="#1998FF"/>
<path d="M28.9658 29.3301C29.3283 29.3301 29.6221 29.0363 29.6221 28.6738C29.6221 28.3114 29.3283 28.0176 28.9658 28.0176C28.6034 28.0176 28.3096 28.3114 28.3096 28.6738C28.3096 29.0363 28.6034 29.3301 28.9658 29.3301Z" fill="#1998FF"/>
<path d="M25.8864 30.5444C26.1167 30.9449 26.5806 31.3038 27.1746 31.3038C27.7686 31.3038 28.2321 30.9449 28.4631 30.5444C28.5242 30.436 28.4424 30.3194 28.3517 30.3869C27.5976 30.9449 26.7561 30.9487 25.9986 30.3869C25.9067 30.3198 25.8253 30.436 25.8864 30.5444" fill="#1998FF"/>
<path d="M19.5098 29.3301C19.8722 29.3301 20.166 29.0363 20.166 28.6738C20.166 28.3114 19.8722 28.0176 19.5098 28.0176C19.1473 28.0176 18.8535 28.3114 18.8535 28.6738C18.8535 29.0363 19.1473 29.3301 19.5098 29.3301Z" fill="#1998FF"/>
<path d="M16.0811 29.3301C16.4435 29.3301 16.7373 29.0363 16.7373 28.6738C16.7373 28.3114 16.4435 28.0176 16.0811 28.0176C15.7186 28.0176 15.4248 28.3114 15.4248 28.6738C15.4248 29.0363 15.7186 29.3301 16.0811 29.3301Z" fill="#1998FF"/>
<path d="M16.5057 30.5437C16.7363 30.9457 17.201 31.3038 17.7957 31.3038C18.3916 31.3038 18.8551 30.9457 19.0857 30.5437C19.1472 30.4368 19.0651 30.3202 18.9743 30.3869C18.215 30.9494 17.3727 30.9457 16.6167 30.3869C16.5263 30.3205 16.4442 30.4368 16.5057 30.5437" fill="#1998FF"/>
</svg>
