<svg width="16" height="19" viewBox="0 0 16 19" fill="none" xmlns="http://www.w3.org/2000/svg">
<path d="M14.2857 1.1875H1.71429C0.7675 1.1875 0 1.98498 0 2.96875V16.0312C0 17.015 0.7675 17.8125 1.71429 17.8125H14.2857C15.2325 17.8125 16 17.015 16 16.0312V2.96875C16 1.98498 15.2325 1.1875 14.2857 1.1875ZM14.2857 16.0312H1.71429V2.96875H14.2857V16.0312ZM13.0049 7.06102L6.84096 13.4143C6.67293 13.5875 6.40157 13.5864 6.23489 13.4118L2.99271 10.0157C2.82604 9.84107 2.82711 9.55912 2.99518 9.38589L3.80657 8.54959C3.97461 8.3764 4.24596 8.37752 4.41264 8.55215L6.54807 10.789L11.5964 5.58567C11.7644 5.41248 12.0358 5.41359 12.2024 5.58819L13.0073 6.43124C13.174 6.60588 13.1729 6.88783 13.0049 7.06102Z" fill="black"/>
</svg>
