<svg width="13" height="16" viewBox="0 0 13 16" fill="none" xmlns="http://www.w3.org/2000/svg">
<path d="M5.83199 15.4474C0.913047 9.2763 0 8.64296 0 6.375C0 3.26839 2.91014 0.75 6.5 0.75C10.0899 0.75 13 3.26839 13 6.375C13 8.64296 12.087 9.2763 7.16801 15.4474C6.84521 15.8509 6.15476 15.8509 5.83199 15.4474ZM6.5 8.71875C7.99578 8.71875 9.20833 7.66942 9.20833 6.375C9.20833 5.08057 7.99578 4.03125 6.5 4.03125C5.00422 4.03125 3.79167 5.08057 3.79167 6.375C3.79167 7.66942 5.00422 8.71875 6.5 8.71875Z" fill="#1998FF"/>
</svg>
