<svg width="25" height="25" viewBox="0 0 25 25" fill="none" xmlns="http://www.w3.org/2000/svg">
<path d="M12.5 0.390625C5.81265 0.390625 0.390625 5.8146 0.390625 12.5C0.390625 19.1893 5.81265 24.6094 12.5 24.6094C19.1874 24.6094 24.6094 19.1893 24.6094 12.5C24.6094 5.8146 19.1874 0.390625 12.5 0.390625ZM12.5 22.2656C7.10293 22.2656 2.73438 17.8989 2.73438 12.5C2.73438 7.10474 7.10313 2.73438 12.5 2.73438C17.8951 2.73438 22.2656 7.10308 22.2656 12.5C22.2656 17.897 17.8989 22.2656 12.5 22.2656ZM17.7365 9.80469C17.7365 13.0787 14.2003 13.1291 14.2003 14.339V14.6484C14.2003 14.972 13.938 15.2344 13.6144 15.2344H11.3855C11.062 15.2344 10.7996 14.972 10.7996 14.6484V14.2256C10.7996 12.4803 12.1229 11.7826 13.1228 11.2219C13.9803 10.7412 14.5058 10.4143 14.5058 9.77764C14.5058 8.93555 13.4316 8.37661 12.5632 8.37661C11.431 8.37661 10.9083 8.9126 10.1735 9.83994C9.97539 10.0899 9.61392 10.1364 9.35972 9.94365L8.00112 8.91348C7.75176 8.72441 7.6959 8.37314 7.87202 8.1145C9.02568 6.42046 10.4951 5.46875 12.7829 5.46875C15.179 5.46875 17.7365 7.33906 17.7365 9.80469ZM14.5508 17.9688C14.5508 19.0996 13.6308 20.0195 12.5 20.0195C11.3692 20.0195 10.4492 19.0996 10.4492 17.9688C10.4492 16.8379 11.3692 15.918 12.5 15.918C13.6308 15.918 14.5508 16.8379 14.5508 17.9688Z" fill="#FF9D0A"/>
</svg>
