<svg width="14" height="15" viewBox="0 0 14 15" fill="none" xmlns="http://www.w3.org/2000/svg">
<path d="M6.32027 14.6974C1.40133 8.5263 0.488281 7.89296 0.488281 5.625C0.488281 2.51839 3.39842 0 6.98828 0C10.5781 0 13.4883 2.51839 13.4883 5.625C13.4883 7.89296 12.5752 8.5263 7.65629 14.6974C7.33349 15.1009 6.64304 15.1009 6.32027 14.6974ZM6.98828 7.96875C8.48406 7.96875 9.69661 6.91942 9.69661 5.625C9.69661 4.33058 8.48406 3.28125 6.98828 3.28125C5.4925 3.28125 4.27995 4.33058 4.27995 5.625C4.27995 6.91942 5.4925 7.96875 6.98828 7.96875Z" fill="#31CB87"/>
</svg>
