<svg width="22" height="23" viewBox="0 0 22 23" fill="none" xmlns="http://www.w3.org/2000/svg">
<g clip-path="url(#clip0)">
<path fill-rule="evenodd" clip-rule="evenodd" d="M11.755 13.481C11.755 13.481 12.1292 13.5143 12.3299 13.2645L12.7225 12.7711C12.9118 12.5257 13.3693 12.3697 13.8171 12.6186C14.4095 12.9534 15.1755 13.4793 15.7005 13.9692C15.9897 14.2128 16.0572 14.5721 15.86 14.9516L15.8582 14.9595C15.6549 15.317 15.3841 15.6527 15.0414 15.9656L15.0335 15.9708C14.6479 16.2925 14.2045 16.4791 13.7303 16.3249L13.7216 16.3126C12.8697 16.0716 10.826 15.0296 9.52367 13.9911C7.39317 12.3102 5.87877 9.53725 5.45985 8.05089L5.44671 8.04213C5.29246 7.56625 5.48089 7.1228 5.80077 6.73806L5.8069 6.73105C6.11977 6.38838 6.45456 6.1167 6.813 5.91426L6.82089 5.9125C7.19949 5.71532 7.55881 5.78192 7.80332 6.07201C8.12496 6.40416 8.72879 7.20343 9.15296 7.95537C9.40186 8.40233 9.24586 8.86068 9.00135 9.0491L8.50706 9.44173C8.25817 9.6433 8.29059 10.0175 8.29059 10.0175C8.29059 10.0175 9.0215 12.7834 11.755 13.481ZM16.0554 11.1884C15.9091 11.1884 15.7899 11.0701 15.789 10.9237C15.7767 9.31991 15.2947 8.04213 14.357 7.12718C13.4175 6.21135 12.23 5.74161 10.8277 5.73197C10.6805 5.73109 10.5622 5.61103 10.5639 5.46379C10.5648 5.31743 10.6831 5.2 10.8295 5.2H10.8312C12.3754 5.21052 13.6865 5.73109 14.7286 6.74595C15.7715 7.76432 16.3078 9.16917 16.321 10.9202C16.3218 11.0666 16.2044 11.1866 16.0572 11.1884H16.0554ZM14.6576 10.6415H14.6514C14.5042 10.638 14.3876 10.5162 14.3911 10.3698C14.4122 9.46013 14.1519 8.72396 13.5971 8.11838C13.045 7.51454 12.2869 7.18502 11.2791 7.1114C11.1327 7.10001 11.0223 6.97294 11.0328 6.82658C11.0442 6.68022 11.1713 6.5698 11.3176 6.58031C12.4517 6.66357 13.3509 7.06057 13.9898 7.75906C14.6322 8.46017 14.9468 9.34269 14.9231 10.3812C14.9196 10.5258 14.8013 10.6415 14.6576 10.6415ZM13.2922 10.184C13.1511 10.184 13.0336 10.0736 13.0266 9.93075C12.9819 9.02807 12.556 8.58637 11.6884 8.53904C11.5411 8.53116 11.4289 8.40583 11.4368 8.25948C11.4447 8.11224 11.5692 8.00006 11.7164 8.00795C12.8627 8.0693 13.499 8.72571 13.5577 9.90446C13.5656 10.0508 13.4525 10.1761 13.3053 10.1832L13.2922 10.184ZM19.2665 13.2242C18.7363 17.4984 15.6102 17.7683 15.0335 17.9532C14.7881 18.0321 12.5078 18.5991 9.64199 18.4125C9.64199 18.4125 7.50535 20.989 6.83841 21.6595C6.73412 21.7638 6.61231 21.8058 6.52992 21.7866C6.41512 21.7585 6.38357 21.6218 6.38532 21.4237L6.40285 17.9041V17.9033C2.22948 16.7438 2.47224 12.3864 2.51956 10.1052C2.56689 7.82391 2.99544 5.95457 4.26884 4.69783C6.55622 2.62604 11.2686 2.93541 11.2686 2.93541C15.2483 2.95293 17.1553 4.15096 17.5979 4.55235C19.0658 5.80909 19.8134 8.81774 19.2665 13.2242ZM18.6951 3.4849C18.1719 3.00464 16.0598 1.47096 11.3553 1.44993C11.3553 1.44993 5.80778 1.11515 3.10324 3.59708C1.5976 5.10272 1.06826 7.30509 1.01217 10.0368C0.956961 12.7694 0.88422 17.8875 5.8183 19.2757L5.82355 19.2774L5.82005 21.3948C5.82005 21.3948 5.78938 22.2528 6.35377 22.4281C7.03648 22.6393 7.43699 21.9881 8.0899 21.2853C8.44747 20.8996 8.94088 20.3335 9.31422 19.9006C12.6892 20.1828 15.2842 19.5351 15.5795 19.4396C16.2605 19.2179 20.1166 18.7244 20.7441 13.6055C21.3909 8.32783 20.4303 4.99054 18.6951 3.4849Z" fill="#840099"/>
</g>
<defs>
<clipPath id="clip0">
<rect width="22" height="22" fill="white" transform="translate(0 0.532471)"/>
</clipPath>
</defs>
</svg>
