<svg width="23" height="22" viewBox="0 0 23 22" fill="none" xmlns="http://www.w3.org/2000/svg">
<path d="M16.2816 12.7966C16.5107 12.9158 16.6574 12.9799 16.7032 13.0716C16.7582 13.1724 16.7399 13.6308 16.5107 14.1533C16.3274 14.6666 15.3741 15.1616 14.9524 15.1799C14.5307 15.1983 14.5216 15.5099 12.2391 14.5108C9.95658 13.5116 8.58158 11.0733 8.47158 10.9174C8.36158 10.7616 7.59158 9.65242 7.62824 8.52492C7.67408 7.40659 8.26074 6.87492 8.49908 6.65492C8.71908 6.41659 8.96658 6.38909 9.12241 6.41659H9.55324C9.69074 6.41659 9.88324 6.36159 10.0574 6.82909L10.6899 8.54325C10.7449 8.66242 10.7816 8.79992 10.6991 8.94659L10.4516 9.32242L10.0941 9.70742C9.98408 9.81742 9.85574 9.93659 9.98408 10.1658C10.0941 10.4041 10.5524 11.1649 11.1941 11.7974C12.0282 12.6041 12.7616 12.8699 12.9816 12.9891C13.2016 13.1174 13.3391 13.0991 13.4766 12.9524L14.2191 12.0908C14.3932 11.8616 14.5399 11.9166 14.7507 11.9899L16.2816 12.7966ZM11.9274 1.83325C13.1312 1.83325 14.3232 2.07035 15.4353 2.53102C16.5475 2.99169 17.558 3.6669 18.4092 4.51811C19.2604 5.36931 19.9356 6.37984 20.3963 7.49199C20.857 8.60414 21.0941 9.79613 21.0941 10.9999C21.0941 13.4311 20.1283 15.7626 18.4092 17.4817C16.6901 19.2008 14.3586 20.1666 11.9274 20.1666C10.1216 20.1666 8.44408 19.6441 7.02324 18.7458L2.76074 20.1666L4.18158 15.9041C3.28324 14.4833 2.76074 12.8058 2.76074 10.9999C2.76074 8.56877 3.72651 6.23719 5.4456 4.51811C7.16468 2.79902 9.49626 1.83325 11.9274 1.83325ZM11.9274 3.66659C9.98249 3.66659 8.11723 4.4392 6.74196 5.81447C5.36669 7.18974 4.59408 9.055 4.59408 10.9999C4.59408 12.5766 5.08908 14.0341 5.93241 15.2258L5.05241 17.8749L7.70158 16.9949C8.89324 17.8383 10.3507 18.3333 11.9274 18.3333C13.8723 18.3333 15.7376 17.5606 17.1129 16.1854C18.4881 14.8101 19.2607 12.9448 19.2607 10.9999C19.2607 9.055 18.4881 7.18974 17.1129 5.81447C15.7376 4.4392 13.8723 3.66659 11.9274 3.66659Z" fill="#31CB87"/>
</svg>
