<svg width="45" height="44" viewBox="0 0 45 44" fill="none" xmlns="http://www.w3.org/2000/svg"><circle cx="22.488" cy="22" r="19.79" stroke="#1998FF"/><path d="M30.928 21.623c.859-.665 1.582-1.577 1.763-2.645.507-.083 1.046-.418 1.046-1.47 0-.931-.335-1.21-.617-1.277-.03-3.813-.93-5.44-4.965-5.48-4.07-.04-5.14 1.657-5.18 5.526-.245.12-.488.439-.488 1.23 0 1.053.54 1.388 1.046 1.47.18 1.057.887 1.959 1.733 2.623-1.68.228-2.779.54-2.779 1.44v-6.788c0-4.65-3.045-4.562-3.045-4.562s-.229-.94-2.579-.94c-3.64 0-5.626 2.375-5.626 5.502V33.25h22.5V23.04c0-.697-1.193-1.169-2.809-1.416zm-16.972 7.172l.098.007.052-.03c.015-.008 1.327-.78 1.375-2.385 1.462 1.372 4.975 1.687 5.82 1.744v.48l.025.186h.187c.167 0 .449.047.449.366 0 .302-.117.443-.37.443a.413.413 0 0 1-.069-.006l-.222-.042v.227c0 1.21-1.869 2.15-3.476 2.15-1.694 0-3.625-1.145-3.625-2.15l-.002-.222-.219.038c-.005 0-.033.005-.072.005-.257 0-.376-.14-.376-.442 0-.246.143-.37.425-.37zm-.112-1.485v-.444c0-1.485 1.567-2.68 3.903-2.68 2.415 0 3.903 1.195 3.903 2.68v.444c0-1.485-1.488-2.68-3.903-2.68-2.336 0-3.903 1.195-3.903 2.68zm1.425 4.3c.733.42 1.656.7 2.556.7.885 0 1.82-.257 2.548-.687.84.271 1.48.69 1.677 1.252h-8.5c.2-.572.858-.994 1.72-1.265zm7.024-1.254a3.62 3.62 0 0 0-.231-.53.7.7 0 0 0 .231-.367v.897zm-9.746-13.901c2.04-.023 5.087-2.256 5.851-2.842.36.623 1.548 2.53 2.757 2.839.005 0 .497.101.497.963 0 1.065-.697 1.261-.725 1.27l-.142.034v.146c-.011 1.8-2.49 3.558-3.922 3.558-1.417 0-3.954-1.792-3.954-3.556l-.002-.144-.137-.038c-.029-.008-.697-.205-.697-1.27 0-.732.386-.926.474-.96zm-.928 16.42v-9.834c0-.433 1.113-.887 2.925-1.108.777.533 1.64.865 2.32.865.678 0 1.547-.34 2.326-.885 1.916.212 3.104.681 3.104 1.128v5.87a.63.63 0 0 0-.202-.298V27.19c0-2.044-1.656-3.689-4.345-3.689-2.6 0-4.343 1.645-4.343 3.69v1.404c-.147.117-.247.3-.247.57 0 .372.149.593.348.71-.368.708-.565 1.681-.188 2.344a.534.534 0 0 0 .105.12 1.555 1.555 0 0 0-.256.537h-1.547zm12.253-14.09l-.019-.152-.148-.012c-.584-.044-.855-.398-.855-1.113 0-.613.142-.923.423-.923a.6.6 0 0 1 .052.003c.036.222.08.384.134.491.13.262.377.405.405.421l.314.175-.048-.366a6.99 6.99 0 0 1-.036-1.027c.12-1.883.234-2.135.625-2.135.18 0 .426.052.738.117.61.128 1.445.304 2.655.304 1.21 0 2.045-.176 2.655-.303.312-.066.558-.118.738-.118.391 0 .505.252.625 2.135a6.79 6.79 0 0 1-.037 1.027l-.05.367.316-.176a1.09 1.09 0 0 0 .406-.421 1.84 1.84 0 0 0 .133-.491c.32-.035.476.271.476.92 0 .714-.272 1.069-.856 1.113l-.148.012-.019.152c-.27 2.226-3.112 3.638-4.24 3.638-1.126 0-3.968-1.412-4.24-3.638zm-.39 10.522c-.332 0-.42-.296-.42-.472 0-.175.088-.472.42-.472h.17l.17-1.866c0-.233.073-.352.475-.352.268 0 .619.058 1.026.126.555.092 1.186.197 1.852.197.666 0 1.296-.105 1.852-.197.407-.068.759-.126 1.027-.126.402 0 .476.118.476.368l.167 1.85h.17c.333 0 .422.296.422.471 0 .176-.089.473-.421.473h-.188v.187c0 1.49-2.076 2.44-3.506 2.44-1.43 0-3.505-.95-3.505-2.44v-.187h-.187zm3.693 3.003c.788 0 1.727-.253 2.484-.714.884.27 1.563.697 1.766 1.279h-8.5c.202-.582.879-1.01 1.764-1.281.758.462 1.697.716 2.486.716zm6.18.565H31.81c-.18-.697-.858-1.211-1.773-1.542.554-.434.953-.996 1.01-1.669.406-.086.617-.46.617-.829 0-.303-.145-.605-.419-.753.007-.07.01-.143.01-.221v-1.183c0-1.76-1.638-3.178-4.08-3.178-2.524 0-4.078 1.418-4.078 3.178v1.183c0 .078.005.15.01.22-.275.146-.42.45-.42.754 0 .37.21.743.616.83.057.672.456 1.235 1.012 1.668-.756.274-1.347.673-1.634 1.195v-9.402c0-.555 1.157-.991 3.03-1.205.848.556 1.763.877 2.401.877.632 0 1.534-.313 2.375-.859 1.78.224 2.869.673 2.869 1.102v9.834" fill="#1998FF"/><path d="M26.05 18.46a.844.844 0 1 0 0-1.688.844.844 0 0 0 0 1.688zm4.125 0a.844.844 0 1 0 0-1.688.844.844 0 0 0 0 1.688zm-.588 1.911c.071-.13-.023-.27-.127-.189-.869.675-1.833.67-2.696 0-.104-.08-.197.06-.127.189.263.482.795.913 1.475.913s1.212-.431 1.476-.913M14.85 18.46a.844.844 0 1 0 0-1.688.844.844 0 0 0 0 1.687zm4.026 0a.844.844 0 1 0 0-1.688.844.844 0 0 0 0 1.687zm-3.489 1.911c.264.482.796.913 1.475.913.68 0 1.212-.43 1.476-.913.07-.13-.023-.27-.127-.189-.869.675-1.833.67-2.696 0-.105-.08-.199.06-.128.189zm9.998 8.959a.656.656 0 1 0 0-1.312.656.656 0 0 0 0 1.312zm3.581 0a.656.656 0 1 0 0-1.312.656.656 0 0 0 0 1.312zm-3.08 1.214c.23.4.695.76 1.289.76s1.057-.36 1.288-.76c.061-.108-.02-.225-.111-.157-.754.558-1.596.562-2.353 0-.092-.067-.174.049-.113.157M19.51 29.33a.656.656 0 1 0 0-1.312.656.656 0 0 0 0 1.312zm-3.429 0a.656.656 0 1 0 0-1.312.656.656 0 0 0 0 1.312zm.425 1.214c.23.402.695.76 1.29.76a1.5 1.5 0 0 0 1.29-.76c.061-.107-.02-.224-.112-.157-.759.562-1.601.559-2.357 0-.09-.067-.173.05-.111.157" fill="#1998FF"/></svg>