<svg width="45" height="44" viewBox="0 0 45 44" fill="none" xmlns="http://www.w3.org/2000/svg"><circle cx="22.601" cy="22" r="19.79" stroke="#1998FF"/><path d="M32.4 31.1H12.8c-1.19 0-2.1-.91-2.1-2.1V16.4c0-1.19.91-2.1 2.1-2.1H17c.14 0 .35-.14.42-.21l.77-1.54c.28-.56.98-.98 1.61-.98h5.6c.63 0 1.33.42 1.61.98l.77 1.54c.07.14.28.21.42.21h4.2c1.19 0 2.1.91 2.1 2.1V29c0 1.19-.91 2.1-2.1 2.1zM12.8 15.7c-.42 0-.7.28-.7.7V29c0 .42.28.7.7.7h19.6c.42 0 .7-.28.7-.7V16.4c0-.42-.28-.7-.7-.7h-4.2c-.63 0-1.33-.42-1.61-.98l-.77-1.54c-.07-.14-.28-.28-.42-.28h-5.6c-.14 0-.35.14-.42.21l-.77 1.54c-.28.63-.98 1.05-1.61 1.05h-4.2z" fill="#1998FF"/><path d="M22.6 28.3c-3.5 0-6.3-2.8-6.3-6.3s2.8-6.3 6.3-6.3 6.3 2.8 6.3 6.3-2.8 6.3-6.3 6.3zm0-11.2a4.87 4.87 0 0 0-4.9 4.9c0 2.73 2.17 4.9 4.9 4.9 2.73 0 4.9-2.17 4.9-4.9 0-2.73-2.17-4.9-4.9-4.9zm7 .7a.7.7 0 1 0 0-1.4.7.7 0 0 0 0 1.4zm-16.099-4.9h2.8v.7h-2.8v-.7z" fill="#1998FF"/><path d="M22.6 19.2v-.7c-1.96 0-3.5 1.54-3.5 3.5h.7c0-1.54 1.26-2.8 2.8-2.8z" fill="#1998FF"/></svg>