<svg width="44" height="44" viewBox="0 0 44 44" fill="none" xmlns="http://www.w3.org/2000/svg"><circle cx="22" cy="22" r="19.79" stroke="#1998FF"/><path d="M27.624 20.75a4.38 4.38 0 0 0 4.375-4.375A4.38 4.38 0 0 0 27.624 12a4.38 4.38 0 0 0-4.375 4.375v1.875h-2.5v-1.875A4.38 4.38 0 0 0 16.374 12a4.38 4.38 0 0 0-4.375 4.375 4.38 4.38 0 0 0 4.375 4.375h1.875v2.5h-1.875a4.38 4.38 0 0 0-4.375 4.375A4.38 4.38 0 0 0 16.374 32a4.38 4.38 0 0 0 4.375-4.375V25.75h2.5v1.875A4.38 4.38 0 0 0 27.624 32a4.38 4.38 0 0 0 4.375-4.375 4.38 4.38 0 0 0-4.375-4.375h-1.875v-2.5h1.875zm-1.875-4.375a1.877 1.877 0 0 1 3.75 0 1.878 1.878 0 0 1-1.875 1.875h-1.875v-1.875zm-7.5 11.25a1.878 1.878 0 0 1-1.875 1.875 1.878 1.878 0 0 1-1.875-1.875c0-1.035.841-1.875 1.875-1.875h1.875v1.875zm0-9.375h-1.875a1.876 1.876 0 1 1 1.875-1.875v1.875zm5 5h-2.5v-2.5h2.5v2.5zm4.375 2.5a1.876 1.876 0 0 1 0 3.75 1.878 1.878 0 0 1-1.875-1.875V25.75h1.875z" fill="#1998FF"/></svg>