<svg width="45" height="44" viewBox="0 0 45 44" fill="none" xmlns="http://www.w3.org/2000/svg"><circle cx="22.887" cy="22" r="19.79" stroke="#1998FF"/><path d="M13.622 16.6c.512 4.354 4.464 8.17 9.267 8.17 5.151 0 9.327-4.388 9.327-9.123 0-.04-.003-.08-.004-.119-5.314-.72-12.085 3.14-18.59 1.072" fill="#1998FF"/><path d="M34.917 15.68c0-6.235-3.122-10.085-3.122-10.086H13.976S10.854 9.45 10.854 15.68c0 5.921 5.062 11.422 11.427 11.752-.074 3.438-.366 7.02-1.209 8.26-1.186 1.748-5.343.85-5.343 2.713h14.315c0-1.864-4.159-.965-5.345-2.713-.842-1.24-1.135-4.821-1.209-8.26 6.364-.33 11.427-5.83 11.427-11.752zM22.886 25.968c-5.356 0-9.762-4.255-10.333-9.11a9.032 9.032 0 0 1-.066-1.061c0-5.387 2.698-8.72 2.698-8.72h15.401c0 .002 2.65 3.276 2.695 8.587 0 .044.004.087.004.133 0 5.279-4.656 10.171-10.4 10.171z" fill="#1998FF"/></svg>