<svg width="16" height="19" viewBox="0 0 16 19" fill="none" xmlns="http://www.w3.org/2000/svg"><path d="M14.286 1.188H1.714C.767 1.188 0 1.985 0 2.968v13.063c0 .984.767 1.782 1.714 1.782h12.572c.947 0 1.714-.798 1.714-1.782V2.97c0-.984-.768-1.781-1.714-1.781zm0 14.843H1.714V2.97h12.572v13.06zm-1.281-8.97L6.84 13.414a.417.417 0 0 1-.606-.002l-3.242-3.396a.458.458 0 0 1 .002-.63l.812-.836a.417.417 0 0 1 .606.002l2.135 2.237 5.048-5.203a.417.417 0 0 1 .606.002l.805.843a.458.458 0 0 1-.002.63z" fill="#000"/></svg>