<svg width="25" height="25" viewBox="0 0 25 25" fill="none" xmlns="http://www.w3.org/2000/svg"><path d="M12.5.39C5.813.39.39 5.816.39 12.5c0 6.69 5.423 12.11 12.11 12.11 6.687 0 12.11-5.42 12.11-12.11C24.61 5.815 19.186.39 12.5.39zm0 21.876A9.76 9.76 0 0 1 2.734 12.5 9.762 9.762 0 0 1 12.5 2.734a9.762 9.762 0 0 1 9.766 9.766 9.76 9.76 0 0 1-9.766 9.766zm5.236-12.461c0 3.274-3.536 3.324-3.536 4.534v.31a.586.586 0 0 1-.586.585h-2.229a.586.586 0 0 1-.585-.586v-.422c0-1.746 1.323-2.443 2.323-3.004.857-.48 1.383-.808 1.383-1.444 0-.842-1.074-1.401-1.943-1.401-1.132 0-1.655.536-2.39 1.463a.586.586 0 0 1-.813.104L8 8.914a.587.587 0 0 1-.129-.8c1.154-1.694 2.623-2.645 4.91-2.645 2.397 0 4.954 1.87 4.954 4.336zm-3.185 8.164c0 1.13-.92 2.05-2.051 2.05-1.13 0-2.05-.92-2.05-2.05 0-1.131.92-2.051 2.05-2.051s2.05.92 2.05 2.05z" fill="#FF9D0A"/></svg>