<svg width="22" height="23" viewBox="0 0 22 23" fill="none" xmlns="http://www.w3.org/2000/svg"><g clip-path="url(#a)"><path fill-rule="evenodd" clip-rule="evenodd" d="M11.755 13.481s.374.033.575-.216l.393-.494c.189-.245.646-.401 1.094-.152.592.334 1.358.86 1.883 1.35.29.244.357.603.16.983l-.002.008a4.128 4.128 0 0 1-.817 1.006l-.008.005c-.385.322-.829.508-1.303.354l-.008-.012c-.852-.241-2.896-1.283-4.198-2.322-2.13-1.68-3.645-4.454-4.064-5.94l-.013-.009c-.155-.476.034-.92.354-1.304l.006-.007a4.09 4.09 0 0 1 1.006-.817l.008-.002c.378-.197.738-.13.982.16.322.332.926 1.131 1.35 1.883.249.447.093.906-.152 1.094l-.494.393c-.249.201-.216.575-.216.575s.73 2.766 3.464 3.464zm4.3-2.293a.267.267 0 0 1-.266-.264c-.012-1.604-.494-2.882-1.432-3.797-.94-.916-2.127-1.385-3.53-1.395a.265.265 0 0 1-.263-.268c0-.147.12-.264.265-.264h.002c1.544.01 2.856.531 3.898 1.546 1.043 1.018 1.579 2.423 1.592 4.174a.267.267 0 0 1-.264.268h-.002zm-1.397-.546h-.007a.266.266 0 0 1-.26-.272c.021-.91-.24-1.646-.794-2.252-.552-.603-1.31-.933-2.318-1.007a.267.267 0 0 1-.246-.284.267.267 0 0 1 .285-.247c1.134.084 2.033.48 2.672 1.18.642.7.957 1.583.933 2.621a.267.267 0 0 1-.265.26zm-1.366-.458a.266.266 0 0 1-.265-.253c-.045-.903-.471-1.345-1.339-1.392a.266.266 0 1 1 .028-.531c1.147.061 1.783.718 1.842 1.896a.265.265 0 0 1-.253.28h-.013zm5.975 3.04c-.53 4.274-3.657 4.544-4.233 4.73-.246.078-2.526.645-5.392.459 0 0-2.137 2.576-2.804 3.247-.104.104-.226.146-.308.127-.115-.028-.146-.165-.145-.363l.018-3.52c-4.174-1.16-3.93-5.518-3.883-7.799.047-2.281.475-4.15 1.749-5.407 2.287-2.072 7-1.763 7-1.763 3.98.018 5.886 1.216 6.329 1.617 1.468 1.257 2.215 4.266 1.669 8.672zm-.572-9.74c-.523-.48-2.635-2.013-7.34-2.034 0 0-5.547-.335-8.252 2.147-1.505 1.506-2.035 3.708-2.09 6.44-.056 2.732-.129 7.85 4.805 9.239l.006.001-.004 2.118s-.03.858.534 1.033c.682.211 1.083-.44 1.736-1.143.357-.385.85-.951 1.224-1.384 3.375.282 5.97-.366 6.265-.461.681-.222 4.538-.716 5.165-5.835.647-5.277-.314-8.614-2.049-10.12z" fill="#840099"/></g><defs><clipPath id="a"><path fill="#fff" transform="translate(0 .532)" d="M0 0h22v22H0z"/></clipPath></defs></svg>