<svg width="23" height="22" viewBox="0 0 23 22" fill="none" xmlns="http://www.w3.org/2000/svg"><path d="M16.282 12.797c.229.119.375.183.421.275.055.1.037.559-.192 1.081-.184.514-1.137 1.009-1.559 1.027-.421.018-.43.33-2.713-.67-2.282-.998-3.657-3.437-3.767-3.593-.11-.155-.88-1.265-.844-2.392.046-1.118.633-1.65.871-1.87.22-.238.468-.266.623-.238h.431c.138 0 .33-.055.504.412l.633 1.714c.055.12.092.257.01.404l-.248.375-.358.385c-.11.11-.238.23-.11.459.11.238.568.999 1.21 1.631.834.807 1.568 1.073 1.788 1.192.22.128.357.11.495-.037l.742-.861c.174-.23.32-.174.532-.101l1.53.807zM11.927 1.833a9.166 9.166 0 1 1 0 18.334 9.138 9.138 0 0 1-4.904-1.421l-4.262 1.42 1.42-4.262a9.167 9.167 0 0 1 7.746-14.07zm0 1.834A7.333 7.333 0 0 0 4.594 11a7.29 7.29 0 0 0 1.338 4.226l-.88 2.649 2.65-.88a7.287 7.287 0 0 0 4.225 1.338 7.334 7.334 0 0 0 0-14.666z" fill="#31CB87"/></svg>